<svg xmlns="http://www.w3.org/2000/svg" xmlns:xlink="http://www.w3.org/1999/xlink" viewBox="0 0 515.34 385.06"><defs><style>.cls-1{fill:url(#linear-gradient);}.cls-2{fill:url(#linear-gradient-10);}.cls-3{fill:url(#linear-gradient-11);}.cls-4{fill:url(#linear-gradient-12);}</style><linearGradient id="linear-gradient" x1="110.14" y1="481.18" x2="497.55" y2="146.05" gradientUnits="userSpaceOnUse"><stop offset="0" stop-color="#4458dc"/><stop offset="0.53" stop-color="#6553e5"/><stop offset="1" stop-color="#854fee"/></linearGradient><linearGradient id="linear-gradient-10" x1="-39.97" y1="326" x2="393.51" y2="-48.98" xlink:href="#linear-gradient"/><linearGradient id="linear-gradient-11" x1="46.47" y1="425.92" x2="479.95" y2="50.94" xlink:href="#linear-gradient"/><linearGradient id="linear-gradient-12" x1="51.02" y1="329.32" x2="386.04" y2="39.51" xlink:href="#linear-gradient"/></defs><title>Asset 7</title><g id="Layer_2" data-name="Layer 2"><g id="Layer_1-2" data-name="Layer 1"><path class="cls-1" d="M2.59,385.06V344.39a9.37,9.37,0,0,1,2.87-6.86,9.35,9.35,0,0,1,6.86-2.87H43.19a9.8,9.8,0,0,1,9.8,9.73v40.67H43.68V368.12H11.83v16.94Zm9.24-26.18H43.68V346.42c0-1.31-.09-2-.28-2.21a5.07,5.07,0,0,0-2.17-.24H14.28a5,5,0,0,0-2.2.24,4.84,4.84,0,0,0-.25,2.21Z"/><path class="cls-1" d="M61.18,385.06v-50.4H99.82a9.8,9.8,0,0,1,9.73,9.73v9.87a11.07,11.07,0,0,1-.14,1.75,6.51,6.51,0,0,1-.49,1.61,16.2,16.2,0,0,1,1.93,3.36,8.93,8.93,0,0,1,.73,3.5v10.85a9.35,9.35,0,0,1-2.87,6.86,9.44,9.44,0,0,1-6.93,2.87Zm11.69-30.31H97.79c1.31,0,2-.08,2.17-.25a5.68,5.68,0,0,0,.21-2.2v-5.88a5.75,5.75,0,0,0-.21-2.21,4.74,4.74,0,0,0-2.17-.24H72.87a5,5,0,0,0-2.2.24,4.84,4.84,0,0,0-.25,2.21v5.88a4.78,4.78,0,0,0,.25,2.2A4.75,4.75,0,0,0,72.87,354.75Zm0,21H99.82a4.83,4.83,0,0,0,2.17-.25c.19-.16.28-.9.28-2.2v-6.79c0-1.31-.09-2-.28-2.21a5.07,5.07,0,0,0-2.17-.24H72.87a5,5,0,0,0-2.2.24,4.84,4.84,0,0,0-.25,2.21v6.79a4.78,4.78,0,0,0,.25,2.2A4.75,4.75,0,0,0,72.87,375.75Z"/><path class="cls-1" d="M119.35,385.06v-50.4H160a9.8,9.8,0,0,1,9.8,9.73v30.94a9.8,9.8,0,0,1-9.8,9.73ZM131,375.75h27a4.83,4.83,0,0,0,2.17-.25c.19-.16.28-.9.28-2.2V346.42c0-1.31-.09-2-.28-2.21A5.07,5.07,0,0,0,158,344H131a5,5,0,0,0-2.2.24,4.84,4.84,0,0,0-.25,2.21V373.3a4.78,4.78,0,0,0,.25,2.2A4.75,4.75,0,0,0,131,375.75Z"/><path class="cls-1" d="M177.73,385.06v-50.4h46.41V344H187v11.2h29.82v9.38H187v11.2h37.1v9.31Z"/><path class="cls-1" d="M231.28,385.06V334.59h9.24v41.16h41.16v9.31Z"/><path class="cls-1" d="M285.81,385.06v-50.4h9.24v20.51h33V334.66h9.24v50.4h-9.24V364.55h-33v20.51Z"/><path class="cls-1" d="M345.45,385.06V344.39a9.8,9.8,0,0,1,9.73-9.73h30.87a9.8,9.8,0,0,1,9.8,9.73v40.67h-9.31V368.12H354.69v16.94Zm9.24-26.18h31.85V346.42c0-1.31-.09-2-.28-2.21a5.07,5.07,0,0,0-2.17-.24H357.14a1.77,1.77,0,0,0-2.45,2.45Z"/><path class="cls-1" d="M404,385.06v-50.4h40.6a9.8,9.8,0,0,1,9.8,9.73v30.94a9.8,9.8,0,0,1-9.8,9.73Zm11.69-9.31h26.95a4.83,4.83,0,0,0,2.17-.25,4.45,4.45,0,0,0,.28-2.2V346.42a4.5,4.5,0,0,0-.28-2.21,5.07,5.07,0,0,0-2.17-.24H415.66a1.77,1.77,0,0,0-2.45,2.45V373.3a5,5,0,0,0,.24,2.2A4.84,4.84,0,0,0,415.66,375.75Z"/><path class="cls-1" d="M482.72,385.06v-18.9l-23.24-31.5H470.4l17,21.35,16.87-21.35h11.06L492,366.23v18.83Z"/><path class="cls-2" d="M229.55,9A18,18,0,0,0,214,0H98A18,18,0,0,0,82.37,9l-80,138.51a18,18,0,0,0,0,18L82.37,304A18,18,0,0,0,98,313H214a18,18,0,0,0,15.59-27L154.78,156.51,229.55,27A18,18,0,0,0,229.55,9ZM118.41,147.51a18,18,0,0,0,0,18L182.78,277H108.35L38.78,156.51,108.35,36h74.43Z"/><path class="cls-3" d="M511.46,147.51,431.5,9a18,18,0,0,0-15.59-9h-116a18,18,0,0,0-15.59,27l74.77,129.51L284.32,286a18,18,0,0,0,15.59,27h116a18,18,0,0,0,15.59-9l80-138.51A18,18,0,0,0,511.46,147.51ZM405.52,277H331.09l64.37-111.51a18,18,0,0,0,0-18L331.09,36h74.43l69.57,120.51Z"/><path class="cls-4" d="M179.9,166.92V138.55a6.85,6.85,0,0,1,6.79-6.79h21.54a6.83,6.83,0,0,1,6.83,6.79v28.37h-6.49V155.1H186.35v11.82Zm6.45-18.27h22.22V140c0-.91-.07-1.42-.2-1.54a3.51,3.51,0,0,0-1.51-.17h-18.8a3.53,3.53,0,0,0-1.54.17,3.56,3.56,0,0,0-.17,1.54Z"/><path class="cls-4" d="M220.63,166.92V131.76h7.08l21.58,25.68V131.76h6.5v35.16h-7.08l-21.63-25.74v25.74Z"/><path class="cls-4" d="M261.3,166.92V131.76h6.5v14.31h8.25l12-14.31h7v1.85l-13.19,15.73,13.24,15.72v1.86h-7.09l-12-14.31H267.8v14.31Z"/><path class="cls-4" d="M298.81,166.92V138.55a6.83,6.83,0,0,1,6.79-6.79h21.53a6.85,6.85,0,0,1,6.84,6.79v28.37h-6.5V155.1H305.25v11.82Zm6.44-18.27h22.22V140c0-.91-.06-1.42-.19-1.54a3.57,3.57,0,0,0-1.52-.17H307a3.46,3.46,0,0,0-1.53.17,3.32,3.32,0,0,0-.18,1.54Z"/></g></g></svg>